<svg version="1.1" id="Layer_1" xmlns="http://www.w3.org/2000/svg" xmlns:xlink="http://www.w3.org/1999/xlink" x="0px" y="0px"
	 width="100%" viewBox="0 0 1096 722" enable-background="new 0 0 1096 722" xml:space="preserve">
<path fill="#FFFFFF" opacity="1.000000" stroke="none" 
	d="
M1039.000000,723.000000 
	C692.666687,723.000000 346.833374,723.000000 1.000046,723.000000 
	C1.000031,482.333374 1.000031,241.666733 1.000015,1.000079 
	C366.333282,1.000052 731.666565,1.000052 1097.000000,1.000026 
	C1097.000000,241.666611 1097.000000,482.333221 1097.000000,722.999878 
	C1077.833374,723.000000 1058.666626,723.000000 1039.000000,723.000000 
M627.430969,411.056396 
	C627.310730,400.402405 627.557556,389.728088 626.970337,379.099915 
	C626.344055,367.766144 619.408325,361.255493 608.154419,360.246521 
	C600.446777,359.555511 593.807190,362.029724 588.045288,367.104797 
	C578.224792,358.297150 567.984558,357.998108 557.397949,365.210663 
	C556.926270,363.524353 556.593628,362.335297 556.318481,361.351685 
	C551.522583,361.351685 547.088684,361.351685 542.534485,361.351685 
	C542.534485,379.165802 542.534485,396.683441 542.534485,414.173401 
	C547.482727,414.173401 552.037292,414.173401 556.942505,414.173401 
	C556.942505,404.942108 556.862244,396.125153 556.989441,387.311218 
	C557.029846,384.513214 557.278687,381.625031 558.040466,378.951508 
	C559.321777,374.455414 563.822693,371.882355 568.529907,372.457428 
	C573.983765,373.123749 576.896729,375.701843 577.120361,381.028595 
	C577.455322,389.009033 577.334717,397.008820 577.392822,405.000519 
	C577.415283,408.089661 577.396484,411.179077 577.396484,414.169800 
	C582.744385,414.169800 587.287109,414.169800 592.088989,414.169800 
	C592.088989,408.431671 592.051025,403.113525 592.099670,397.796143 
	C592.148315,392.473053 591.849670,387.097748 592.491760,381.841644 
	C593.274780,375.431641 597.622864,371.971039 603.197754,372.334198 
	C609.193481,372.724762 612.301880,376.129822 612.678589,382.935791 
	C612.834778,385.758575 612.717651,388.596741 612.718445,391.427887 
	C612.720520,399.035004 612.719177,406.642151 612.719177,414.583893 
	C617.201660,414.583893 621.026062,414.752777 624.815491,414.463287 
	C625.744873,414.392303 626.559814,412.823242 627.430969,411.056396 
M323.834320,344.025330 
	C323.833405,341.027191 323.392517,337.949524 323.917206,335.046387 
	C325.282715,327.491302 321.342285,324.490906 315.176666,320.970093 
	C303.807373,314.477814 293.787384,314.256836 282.421417,320.982361 
	C276.541840,324.461517 272.379639,327.147491 273.901459,334.628021 
	C275.639404,343.170929 272.854889,349.339996 264.018494,352.098450 
	C262.321289,352.628265 260.933105,354.077362 259.276855,354.824005 
	C256.017090,356.293579 254.571838,358.481049 254.864944,362.227539 
	C255.211639,366.659454 254.946396,371.139252 254.946396,375.716400 
	C253.445312,375.814911 252.174072,375.579224 251.201401,376.013031 
	C243.917404,379.261841 236.625565,382.511017 229.515854,386.114594 
	C228.356628,386.702148 227.543457,389.021393 227.494461,390.569489 
	C227.278595,397.391663 227.174164,404.237183 227.552628,411.045135 
	C227.653687,412.863037 229.196655,415.294556 230.787109,416.204651 
	C235.391129,418.839203 240.571030,420.482086 245.121536,423.191589 
	C250.122391,426.169250 254.495712,426.205597 259.508026,423.242004 
	C261.403503,422.121338 264.841339,421.755768 266.694031,422.727600 
	C276.246429,427.738159 285.410828,433.488098 294.958374,438.508911 
	C297.044922,439.606140 300.641876,439.739258 302.686554,438.673218 
	C310.929077,434.375885 318.973175,429.649170 326.806274,424.636841 
	C330.439270,422.312134 333.491852,421.479401 337.214539,424.061768 
	C340.156921,426.102814 343.155762,426.170471 346.547089,424.392273 
	C352.132263,421.463867 357.955688,418.974609 363.754395,416.476044 
	C366.232269,415.408417 367.236359,413.948151 367.120728,411.165314 
	C366.892670,405.678284 366.664886,400.139740 367.160400,394.688232 
	C367.684631,388.920319 366.149994,385.365387 360.182892,383.653412 
	C356.078094,382.475739 352.431519,379.769897 348.365845,378.368835 
	C343.738037,376.773987 341.490875,374.148499 342.461517,369.203949 
	C344.273132,359.975616 340.705078,354.148224 331.807312,350.913605 
	C328.821472,349.828125 326.483398,346.960693 323.834320,344.025330 
M406.003479,414.581085 
	C409.804932,414.581085 413.606384,414.581085 417.348999,414.581085 
	C417.808411,412.859711 418.150116,411.579346 418.529266,410.158691 
	C430.609833,418.199005 443.665527,417.345337 453.151276,408.198120 
	C461.742676,399.913330 463.811005,382.374146 456.454498,372.179596 
	C453.321686,367.838257 448.608612,363.865295 443.735382,361.721527 
	C435.085968,357.916656 426.289734,359.623718 417.734375,365.962646 
	C417.734375,356.960754 417.734375,349.086884 417.734375,341.376038 
	C412.725952,341.376038 408.304321,341.376038 404.013214,341.376038 
	C403.763885,341.990417 403.534515,342.292389 403.533813,342.594910 
	C403.478973,365.561951 403.420013,388.529114 403.477325,411.495941 
	C403.479889,412.513885 404.555603,413.529144 406.003479,414.581085 
M657.909790,361.206177 
	C645.370361,365.728455 637.716431,377.020782 640.400269,391.209412 
	C645.168091,416.415222 661.050415,420.190735 682.661804,410.981720 
	C682.864868,411.827545 683.182861,413.152191 683.469666,414.347168 
	C688.142517,414.347168 692.422791,414.347168 696.985718,414.347168 
	C696.985718,396.539215 696.985718,378.972382 696.985718,361.262329 
	C692.347229,361.262329 687.896179,361.262329 683.494751,361.262329 
	C683.035217,362.739716 682.638550,364.014771 682.170227,365.520264 
	C674.858215,359.735107 667.039185,358.931488 657.909790,361.206177 
M852.398499,393.588470 
	C855.169861,393.588470 857.941223,393.588470 860.594116,393.588470 
	C863.498718,377.963531 855.530701,364.991638 841.186951,361.232483 
	C826.820312,357.467377 811.052673,364.713623 806.249146,377.288605 
	C800.930969,391.210907 806.405518,406.410675 818.862915,412.309723 
	C833.567932,419.273102 850.808105,415.324982 857.845947,403.163055 
	C854.431274,401.154083 851.013367,399.143250 847.639954,397.158539 
	C834.675476,405.692291 820.988647,404.100800 820.014465,393.588104 
	C830.507385,393.588104 840.965393,393.588104 852.398499,393.588470 
M709.981567,374.307495 
	C709.298828,383.785309 712.786255,389.168030 721.856995,391.805237 
	C726.628662,393.192566 731.637024,393.755463 736.433594,395.072693 
	C738.098328,395.529816 739.446960,397.137787 740.939880,398.220123 
	C739.374451,399.729919 737.826416,402.488281 736.240173,402.510498 
	C731.854187,402.571869 727.242737,402.115295 723.101685,400.726685 
	C715.400513,398.144257 715.507812,397.804810 710.825378,404.362671 
	C710.163940,405.289032 709.582825,406.272644 708.848328,407.409637 
	C718.764282,414.905365 729.602844,417.252045 741.496277,414.928619 
	C750.583069,413.153503 755.544861,407.273346 755.685242,398.316284 
	C755.807983,390.481293 751.072876,385.159607 742.000549,383.071045 
	C737.305420,381.990112 732.530518,381.219696 727.896545,379.931824 
	C726.613708,379.575287 724.832886,377.842529 724.862488,376.785461 
	C724.894714,375.632782 726.712830,373.639221 727.843506,373.573212 
	C731.405823,373.365265 735.223877,373.212585 738.557434,374.262665 
	C746.941101,376.903534 746.861816,377.176666 752.090088,370.319519 
	C752.667114,369.562805 753.138184,368.725281 753.721924,367.827606 
	C744.475830,360.604706 734.349915,358.604858 723.393250,361.334747 
	C716.912903,362.949341 710.981934,365.638184 709.981567,374.307495 
M785.086731,354.417633 
	C785.086731,351.671417 785.086731,348.925201 785.086731,346.302002 
	C779.870544,346.302002 775.455444,346.302002 770.496948,346.302002 
	C770.496948,350.999695 770.496948,355.400635 770.496948,359.832581 
	C768.186279,360.075439 766.416809,360.261444 764.418579,360.471466 
	C764.418579,364.677277 764.418579,368.584045 764.418579,372.673218 
	C766.554016,372.920624 768.479858,373.143768 770.722839,373.403625 
	C770.722839,375.725952 770.708435,377.874908 770.725403,380.023590 
	C770.789734,388.186981 770.729736,396.354462 770.985291,404.511993 
	C771.139038,409.422821 773.378906,413.492645 778.459656,414.473999 
	C783.862915,415.517639 789.440063,415.661072 795.162598,416.219116 
	C795.162598,411.160950 795.162598,407.393219 795.162598,403.559326 
	C791.322327,402.771576 785.967346,404.394623 785.685547,398.490875 
	C785.285095,390.099731 785.583862,381.675232 785.583862,372.828674 
	C789.055115,372.828674 792.318787,372.828674 795.677429,372.828674 
	C795.677429,368.467285 795.677429,364.552032 795.677429,360.176514 
	C792.178772,360.176514 788.918274,360.176514 785.365967,360.176514 
	C785.255737,358.280792 785.171265,356.828186 785.086731,354.417633 
M508.797302,411.604004 
	C515.357178,417.110352 522.901001,416.013184 530.394165,415.409180 
	C530.394165,411.073120 530.394165,407.319977 530.394165,403.519562 
	C526.098267,403.030670 520.973938,404.003876 520.783997,397.840607 
	C520.534241,389.737427 520.722656,381.620728 520.722656,373.231049 
	C524.154053,373.080536 527.403992,372.937988 530.572998,372.798981 
	C530.572998,368.394257 530.572998,364.367310 530.572998,359.923584 
	C527.030029,359.923584 523.925293,359.923584 520.299683,359.923584 
	C520.299683,355.089630 520.299683,350.677490 520.299683,346.238281 
	C515.330444,346.238281 510.894623,346.238281 505.983551,346.238281 
	C505.983551,350.885162 505.983551,355.307007 505.983551,359.845490 
	C503.619049,360.085999 501.716217,360.279510 499.667725,360.487854 
	C499.667725,364.744751 499.667725,368.670441 499.667725,372.753510 
	C501.835999,372.926910 503.751160,373.080078 505.992645,373.259338 
	C505.992645,382.557648 505.782501,391.528656 506.096893,400.481232 
	C506.221283,404.024323 507.511902,407.526459 508.797302,411.604004 
M872.917114,375.505432 
	C872.917114,388.396027 872.917114,401.286591 872.917114,414.324219 
	C878.003967,414.324219 882.415710,414.324219 887.427429,414.324219 
	C887.427429,412.289368 887.414978,410.511871 887.429565,408.734558 
	C887.484131,402.088959 887.473511,395.441711 887.628479,388.798401 
	C887.782349,382.200531 891.444519,377.978241 897.339539,375.665161 
	C899.734253,374.725464 902.384399,374.436615 904.799866,373.878967 
	C904.799866,369.224274 904.799866,364.813568 904.799866,358.893402 
	C898.533081,361.498871 893.095703,363.759491 887.689575,366.007111 
	C887.488403,364.674683 887.226746,362.941620 886.988037,361.360474 
	C882.210693,361.360474 877.788025,361.360474 872.917053,361.360474 
	C872.917053,365.936096 872.917053,370.222595 872.917114,375.505432 
M488.028137,396.499146 
	C488.028137,384.790466 488.028137,373.081757 488.028137,361.397949 
	C482.778625,361.397949 478.359344,361.397949 473.715637,361.397949 
	C473.715637,379.166504 473.715637,396.664703 473.715637,414.263702 
	C478.622223,414.263702 483.176392,414.263702 488.028168,414.263702 
	C488.028168,408.439423 488.028168,402.968872 488.028137,396.499146 
M477.449738,340.549438 
	C476.634216,341.113312 475.730927,341.584351 475.018616,342.257416 
	C472.233490,344.889008 471.830017,348.071930 473.657928,351.281067 
	C475.705597,354.876007 479.392700,356.622467 482.922699,354.837067 
	C485.414551,353.576721 487.893341,350.371979 488.436981,347.647980 
	C489.170135,343.974121 486.419189,341.135223 482.604248,340.188965 
	C481.219025,339.845337 479.659332,340.205017 477.449738,340.549438 
z"/>
<path fill="#686362" opacity="1.000000" stroke="none" 
	d="
M627.429199,411.499664 
	C626.559814,412.823242 625.744873,414.392303 624.815491,414.463287 
	C621.026062,414.752777 617.201660,414.583893 612.719177,414.583893 
	C612.719177,406.642151 612.720520,399.035004 612.718445,391.427887 
	C612.717651,388.596741 612.834778,385.758575 612.678589,382.935791 
	C612.301880,376.129822 609.193481,372.724762 603.197754,372.334198 
	C597.622864,371.971039 593.274780,375.431641 592.491760,381.841644 
	C591.849670,387.097748 592.148315,392.473053 592.099670,397.796143 
	C592.051025,403.113525 592.088989,408.431671 592.088989,414.169800 
	C587.287109,414.169800 582.744385,414.169800 577.396484,414.169800 
	C577.396484,411.179077 577.415283,408.089661 577.392822,405.000519 
	C577.334717,397.008820 577.455322,389.009033 577.120361,381.028595 
	C576.896729,375.701843 573.983765,373.123749 568.529907,372.457428 
	C563.822693,371.882355 559.321777,374.455414 558.040466,378.951508 
	C557.278687,381.625031 557.029846,384.513214 556.989441,387.311218 
	C556.862244,396.125153 556.942505,404.942108 556.942505,414.173401 
	C552.037292,414.173401 547.482727,414.173401 542.534485,414.173401 
	C542.534485,396.683441 542.534485,379.165802 542.534485,361.351685 
	C547.088684,361.351685 551.522583,361.351685 556.318481,361.351685 
	C556.593628,362.335297 556.926270,363.524353 557.397949,365.210663 
	C567.984558,357.998108 578.224792,358.297150 588.045288,367.104797 
	C593.807190,362.029724 600.446777,359.555511 608.154419,360.246521 
	C619.408325,361.255493 626.344055,367.766144 626.970337,379.099915 
	C627.557556,389.728088 627.310730,400.402405 627.429199,411.499664 
z"/>
<path fill="#FC5F79" opacity="1.000000" stroke="none" 
	d="
M323.841797,344.466553 
	C326.483398,346.960693 328.821472,349.828125 331.807312,350.913605 
	C340.705078,354.148224 344.273132,359.975616 342.461517,369.203949 
	C341.490875,374.148499 343.738037,376.773987 348.365845,378.368835 
	C352.431519,379.769897 356.078094,382.475739 360.182892,383.653412 
	C366.149994,385.365387 367.684631,388.920319 367.160400,394.688232 
	C366.664886,400.139740 366.892670,405.678284 367.120728,411.165314 
	C367.236359,413.948151 366.232269,415.408417 363.754395,416.476044 
	C357.955688,418.974609 352.132263,421.463867 346.547089,424.392273 
	C343.155762,426.170471 340.156921,426.102814 337.214539,424.061768 
	C333.491852,421.479401 330.439270,422.312134 326.806274,424.636841 
	C318.973175,429.649170 310.929077,434.375885 302.686554,438.673218 
	C300.641876,439.739258 297.044922,439.606140 294.958374,438.508911 
	C285.410828,433.488098 276.246429,427.738159 266.694031,422.727600 
	C264.841339,421.755768 261.403503,422.121338 259.508026,423.242004 
	C254.495712,426.205597 250.122391,426.169250 245.121536,423.191589 
	C240.571030,420.482086 235.391129,418.839203 230.787109,416.204651 
	C229.196655,415.294556 227.653687,412.863037 227.552628,411.045135 
	C227.174164,404.237183 227.278595,397.391663 227.494461,390.569489 
	C227.543457,389.021393 228.356628,386.702148 229.515854,386.114594 
	C236.625565,382.511017 243.917404,379.261841 251.201401,376.013031 
	C252.174072,375.579224 253.445312,375.814911 254.946396,375.716400 
	C254.946396,371.139252 255.211639,366.659454 254.864944,362.227539 
	C254.571838,358.481049 256.017090,356.293579 259.276855,354.824005 
	C260.933105,354.077362 262.321289,352.628265 264.018494,352.098450 
	C272.854889,349.339996 275.639404,343.170929 273.901459,334.628021 
	C272.379639,327.147491 276.541840,324.461517 282.421417,320.982361 
	C293.787384,314.256836 303.807373,314.477814 315.176666,320.970093 
	C321.342285,324.490906 325.282715,327.491302 323.917206,335.046387 
	C323.392517,337.949524 323.833405,341.027191 323.841797,344.466553 
M258.092285,360.274353 
	C258.078064,364.770355 258.289185,369.282104 257.975952,373.757172 
	C257.739227,377.139618 258.904541,378.761749 262.096039,379.991272 
	C267.034973,381.894012 273.485016,383.302673 275.999725,387.101685 
	C278.494110,390.869965 276.917572,397.335663 277.115448,402.618713 
	C277.146606,403.450195 277.000275,404.304260 277.138519,405.113281 
	C278.327118,412.067932 276.285309,417.055878 268.914551,418.901733 
	C268.696503,418.956329 268.559937,419.336273 268.253723,419.736694 
	C277.655640,425.140381 286.992035,430.569702 296.417603,435.839508 
	C297.533478,436.463409 299.475342,436.822296 300.463013,436.274323 
	C309.651031,431.176575 318.713867,425.853241 328.465637,420.218262 
	C325.858093,418.890411 324.187286,417.692474 322.326233,417.161804 
	C318.026886,415.935913 316.833008,413.255768 317.086609,408.972229 
	C317.440308,402.998169 317.322357,396.982391 317.113403,390.994720 
	C317.010834,388.055511 318.043884,386.399841 320.709045,385.248474 
	C325.892426,383.009155 331.022552,380.628876 336.057159,378.075195 
	C337.321045,377.434143 338.934753,375.973022 339.021881,374.788330 
	C339.362946,370.150970 339.280151,365.467651 339.063202,360.815033 
	C339.012512,359.727753 338.063293,358.296539 337.106262,357.704742 
	C333.162720,355.266327 329.056976,353.090179 325.105896,350.870941 
	C323.715088,352.138916 322.720581,353.531830 321.368134,354.196411 
	C314.659454,357.493103 307.912598,360.729431 301.040161,363.661041 
	C299.628326,364.263275 297.448975,363.889771 295.921051,363.252380 
	C289.633240,360.629456 283.410980,357.833282 277.276581,354.869049 
	C275.560333,354.039734 274.227539,352.416779 272.327667,350.831421 
	C267.880676,353.561218 263.080292,356.507935 258.092285,360.274353 
M320.195465,405.366394 
	C320.756683,408.103241 320.416138,412.317200 322.042145,413.309875 
	C327.730164,416.782257 334.096771,419.143005 340.800140,422.196899 
	C340.800140,414.953857 340.836761,408.525421 340.758026,402.098419 
	C340.747040,401.201630 340.421234,399.795135 339.814056,399.498413 
	C333.549286,396.436340 327.196625,393.554138 320.195679,390.310150 
	C320.195679,395.816864 320.195679,400.113708 320.195465,405.366394 
M307.419830,334.937531 
	C304.987946,336.622650 300.733582,338.055664 300.459137,340.039276 
	C299.564911,346.502838 300.124237,353.167542 300.124237,360.710541 
	C306.920837,357.595978 312.912170,354.887360 318.853790,352.073761 
	C319.488739,351.773132 320.240234,350.865265 320.249817,350.228729 
	C320.351044,343.509521 320.312439,336.788208 320.312439,328.985535 
	C315.558411,331.178497 311.835602,332.895752 307.419830,334.937531 
M230.718582,410.076874 
	C231.179047,411.241791 231.318588,413.056061 232.151352,413.467651 
	C238.151276,416.432922 244.291672,419.113953 250.878464,422.108276 
	C250.878464,414.965881 250.977371,408.801544 250.795822,402.645538 
	C250.759079,401.399811 249.981064,399.557556 249.001434,399.059845 
	C243.271423,396.148743 237.379837,393.555664 230.716293,390.472900 
	C230.716293,397.277802 230.716293,403.216431 230.718582,410.076874 
M267.870148,393.278198 
	C264.116547,395.015167 260.301056,396.634644 256.646179,398.559174 
	C255.518417,399.153046 254.097260,400.551819 254.057953,401.627655 
	C253.818283,408.186920 253.938217,414.759369 253.938217,422.069733 
	C260.474060,419.099762 266.331238,416.487061 272.127563,413.745667 
	C272.898499,413.381042 273.871704,412.373047 273.885986,411.646027 
	C274.019928,404.815399 273.965515,397.981079 273.965515,390.558655 
	C271.554962,391.642395 270.069336,392.310333 267.870148,393.278198 
M358.790283,415.210724 
	C360.521912,413.909790 363.634705,412.719452 363.749176,411.289124 
	C364.281952,404.633026 363.985168,397.910583 363.985168,390.408997 
	C357.400452,393.492279 351.695038,396.074463 346.096191,398.870026 
	C345.117798,399.358551 343.978027,400.726837 343.949097,401.719055 
	C343.758057,408.268921 343.850372,414.827057 343.850372,422.099030 
	C349.134064,419.684174 353.625336,417.631470 358.790283,415.210724 
M276.980927,338.574280 
	C276.982391,341.901672 276.859741,345.236328 277.052948,348.552551 
	C277.120117,349.705658 277.664276,351.419647 278.509491,351.844055 
	C284.378937,354.791351 290.385101,357.466400 297.082336,360.569275 
	C297.082336,353.221069 297.145447,346.778442 297.013031,340.339844 
	C296.993591,339.393799 296.278503,337.996216 295.490173,337.606140 
	C289.587952,334.685669 283.586365,331.966003 276.980927,328.887512 
	C276.980927,332.367432 276.980927,334.992218 276.980927,338.574280 
M247.823746,395.002319 
	C250.015213,395.327789 252.516068,396.493958 254.340652,395.822479 
	C260.024872,393.730591 265.453003,390.942810 271.996857,387.961853 
	C267.666962,385.968201 264.274841,384.411194 260.886902,382.845123 
	C256.494965,380.815002 252.513962,377.549591 247.106552,381.072327 
	C242.971985,383.765808 238.196884,385.476013 232.914551,388.002472 
	C238.399475,390.577240 242.751511,392.620209 247.823746,395.002319 
M347.958923,381.456268 
	C345.779541,380.728851 343.182678,378.861115 341.495697,379.478729 
	C335.394501,381.712280 329.599121,384.781097 322.692230,387.998657 
	C329.410522,391.121490 334.937408,393.717194 340.496796,396.241272 
	C341.202423,396.561646 342.228424,396.847656 342.852142,396.573059 
	C348.957672,393.884613 355.009338,391.073730 361.791809,387.970245 
	C356.738159,385.618378 352.675385,383.727631 347.958923,381.456268 
M286.646606,329.952576 
	C289.515106,331.252686 292.319519,332.732880 295.276276,333.784882 
	C297.029785,334.408783 299.319611,335.094727 300.856445,334.477753 
	C306.524231,332.202423 311.978516,329.395386 318.290192,326.422272 
	C311.936310,323.471924 306.280579,320.799805 300.572021,318.245758 
	C299.738922,317.873016 298.501678,317.709259 297.709656,318.049683 
	C291.753815,320.609833 285.862640,323.320587 279.220062,326.313690 
	C282.112152,327.744171 284.036926,328.696198 286.646606,329.952576 
z"/>
<path fill="#686362" opacity="1.000000" stroke="none" 
	d="
M405.567444,414.563354 
	C404.555603,413.529144 403.479889,412.513885 403.477325,411.495941 
	C403.420013,388.529114 403.478973,365.561951 403.533813,342.594910 
	C403.534515,342.292389 403.763885,341.990417 404.013214,341.376038 
	C408.304321,341.376038 412.725952,341.376038 417.734375,341.376038 
	C417.734375,349.086884 417.734375,356.960754 417.734375,365.962646 
	C426.289734,359.623718 435.085968,357.916656 443.735382,361.721527 
	C448.608612,363.865295 453.321686,367.838257 456.454498,372.179596 
	C463.811005,382.374146 461.742676,399.913330 453.151276,408.198120 
	C443.665527,417.345337 430.609833,418.199005 418.529266,410.158691 
	C418.150116,411.579346 417.808411,412.859711 417.348999,414.581085 
	C413.606384,414.581085 409.804932,414.581085 405.567444,414.563354 
M440.873169,375.404816 
	C439.690552,374.803223 438.555695,374.069122 437.317169,373.622589 
	C431.537323,371.538940 424.893768,373.014679 421.201019,377.118195 
	C417.040253,381.741791 416.071899,389.398346 418.972687,395.378632 
	C421.725372,401.053528 426.759521,402.993500 432.565033,402.804260 
	C438.471436,402.611786 443.055542,399.908356 445.382416,394.114502 
	C447.994110,387.611511 446.612396,381.130127 440.873169,375.404816 
z"/>
<path fill="#686362" opacity="1.000000" stroke="none" 
	d="
M658.307129,361.097443 
	C667.039185,358.931488 674.858215,359.735107 682.170227,365.520264 
	C682.638550,364.014771 683.035217,362.739716 683.494751,361.262329 
	C687.896179,361.262329 692.347229,361.262329 696.985718,361.262329 
	C696.985718,378.972382 696.985718,396.539215 696.985718,414.347168 
	C692.422791,414.347168 688.142517,414.347168 683.469666,414.347168 
	C683.182861,413.152191 682.864868,411.827545 682.661804,410.981720 
	C661.050415,420.190735 645.168091,416.415222 640.400269,391.209412 
	C637.716431,377.020782 645.370361,365.728455 658.307129,361.097443 
M654.307312,385.059387 
	C654.274414,386.551849 654.080322,388.061310 654.235779,389.533875 
	C655.025330,397.012482 660.002747,401.972900 667.435425,402.812195 
	C674.251831,403.581879 680.705933,399.592377 682.690613,393.382355 
	C685.403137,384.895020 681.557312,376.046051 674.070312,373.547485 
	C665.081116,370.547577 657.388000,374.745697 654.307312,385.059387 
z"/>
<path fill="#686362" opacity="1.000000" stroke="none" 
	d="
M851.911011,393.588287 
	C840.965393,393.588104 830.507385,393.588104 820.014465,393.588104 
	C820.988647,404.100800 834.675476,405.692291 847.639954,397.158539 
	C851.013367,399.143250 854.431274,401.154083 857.845947,403.163055 
	C850.808105,415.324982 833.567932,419.273102 818.862915,412.309723 
	C806.405518,406.410675 800.930969,391.210907 806.249146,377.288605 
	C811.052673,364.713623 826.820312,357.467377 841.186951,361.232483 
	C855.530701,364.991638 863.498718,377.963531 860.594116,393.588470 
	C857.941223,393.588470 855.169861,393.588470 851.911011,393.588287 
M844.647705,383.011047 
	C844.862488,382.252869 845.442383,381.371002 845.234070,380.756134 
	C843.642151,376.057220 838.618652,372.913849 833.128967,373.013123 
	C826.788391,373.127777 821.730957,376.218719 820.103882,381.058350 
	C819.929443,381.577301 820.199646,382.245819 820.286560,383.059662 
	C828.272217,383.059662 836.034729,383.059662 844.647705,383.011047 
z"/>
<path fill="#686362" opacity="1.000000" stroke="none" 
	d="
M709.991211,373.913147 
	C710.981934,365.638184 716.912903,362.949341 723.393250,361.334747 
	C734.349915,358.604858 744.475830,360.604706 753.721924,367.827606 
	C753.138184,368.725281 752.667114,369.562805 752.090088,370.319519 
	C746.861816,377.176666 746.941101,376.903534 738.557434,374.262665 
	C735.223877,373.212585 731.405823,373.365265 727.843506,373.573212 
	C726.712830,373.639221 724.894714,375.632782 724.862488,376.785461 
	C724.832886,377.842529 726.613708,379.575287 727.896545,379.931824 
	C732.530518,381.219696 737.305420,381.990112 742.000549,383.071045 
	C751.072876,385.159607 755.807983,390.481293 755.685242,398.316284 
	C755.544861,407.273346 750.583069,413.153503 741.496277,414.928619 
	C729.602844,417.252045 718.764282,414.905365 708.848328,407.409637 
	C709.582825,406.272644 710.163940,405.289032 710.825378,404.362671 
	C715.507812,397.804810 715.400513,398.144257 723.101685,400.726685 
	C727.242737,402.115295 731.854187,402.571869 736.240173,402.510498 
	C737.826416,402.488281 739.374451,399.729919 740.939941,398.220123 
	C739.446960,397.137787 738.098328,395.529816 736.433594,395.072693 
	C731.637024,393.755463 726.628662,393.192566 721.856995,391.805237 
	C712.786255,389.168030 709.298828,383.785309 709.991211,373.913147 
z"/>
<path fill="#686362" opacity="1.000000" stroke="none" 
	d="
M785.086792,354.896606 
	C785.171265,356.828186 785.255737,358.280792 785.365967,360.176514 
	C788.918274,360.176514 792.178772,360.176514 795.677429,360.176514 
	C795.677429,364.552032 795.677429,368.467285 795.677429,372.828674 
	C792.318787,372.828674 789.055115,372.828674 785.583862,372.828674 
	C785.583862,381.675232 785.285095,390.099731 785.685547,398.490875 
	C785.967346,404.394623 791.322327,402.771576 795.162598,403.559326 
	C795.162598,407.393219 795.162598,411.160950 795.162598,416.219116 
	C789.440063,415.661072 783.862915,415.517639 778.459656,414.473999 
	C773.378906,413.492645 771.139038,409.422821 770.985291,404.511993 
	C770.729736,396.354462 770.789734,388.186981 770.725403,380.023590 
	C770.708435,377.874908 770.722839,375.725952 770.722839,373.403625 
	C768.479858,373.143768 766.554016,372.920624 764.418579,372.673218 
	C764.418579,368.584045 764.418579,364.677277 764.418579,360.471466 
	C766.416809,360.261444 768.186279,360.075439 770.496948,359.832581 
	C770.496948,355.400635 770.496948,350.999695 770.496948,346.302002 
	C775.455444,346.302002 779.870544,346.302002 785.086731,346.302002 
	C785.086731,348.925201 785.086731,351.671417 785.086792,354.896606 
z"/>
<path fill="#686362" opacity="1.000000" stroke="none" 
	d="
M508.534424,411.325623 
	C507.511902,407.526459 506.221283,404.024323 506.096893,400.481232 
	C505.782501,391.528656 505.992645,382.557648 505.992645,373.259338 
	C503.751160,373.080078 501.835999,372.926910 499.667725,372.753510 
	C499.667725,368.670441 499.667725,364.744751 499.667725,360.487854 
	C501.716217,360.279510 503.619049,360.085999 505.983551,359.845490 
	C505.983551,355.307007 505.983551,350.885162 505.983551,346.238281 
	C510.894623,346.238281 515.330444,346.238281 520.299683,346.238281 
	C520.299683,350.677490 520.299683,355.089630 520.299683,359.923584 
	C523.925293,359.923584 527.030029,359.923584 530.572998,359.923584 
	C530.572998,364.367310 530.572998,368.394257 530.572998,372.798981 
	C527.403992,372.937988 524.154053,373.080536 520.722656,373.231049 
	C520.722656,381.620728 520.534241,389.737427 520.783997,397.840607 
	C520.973938,404.003876 526.098267,403.030670 530.394165,403.519562 
	C530.394165,407.319977 530.394165,411.073120 530.394165,415.409180 
	C522.901001,416.013184 515.357178,417.110352 508.534424,411.325623 
z"/>
<path fill="#686362" opacity="1.000000" stroke="none" 
	d="
M872.917114,375.007263 
	C872.917053,370.222595 872.917053,365.936096 872.917053,361.360474 
	C877.788025,361.360474 882.210693,361.360474 886.988037,361.360474 
	C887.226746,362.941620 887.488403,364.674683 887.689575,366.007111 
	C893.095703,363.759491 898.533081,361.498871 904.799866,358.893402 
	C904.799866,364.813568 904.799866,369.224274 904.799866,373.878967 
	C902.384399,374.436615 899.734253,374.725464 897.339539,375.665161 
	C891.444519,377.978241 887.782349,382.200531 887.628479,388.798401 
	C887.473511,395.441711 887.484131,402.088959 887.429565,408.734558 
	C887.414978,410.511871 887.427429,412.289368 887.427429,414.324219 
	C882.415710,414.324219 878.003967,414.324219 872.917114,414.324219 
	C872.917114,401.286591 872.917114,388.396027 872.917114,375.007263 
z"/>
<path fill="#6D6867" opacity="1.000000" stroke="none" 
	d="
M488.028137,396.998749 
	C488.028168,402.968872 488.028168,408.439423 488.028168,414.263702 
	C483.176392,414.263702 478.622223,414.263702 473.715637,414.263702 
	C473.715637,396.664703 473.715637,379.166504 473.715637,361.397949 
	C478.359344,361.397949 482.778625,361.397949 488.028137,361.397949 
	C488.028137,373.081757 488.028137,384.790466 488.028137,396.998749 
z"/>
<path fill="#6D6867" opacity="1.000000" stroke="none" 
	d="
M477.814514,340.396606 
	C479.659332,340.205017 481.219025,339.845337 482.604248,340.188965 
	C486.419189,341.135223 489.170135,343.974121 488.436981,347.647980 
	C487.893341,350.371979 485.414551,353.576721 482.922699,354.837067 
	C479.392700,356.622467 475.705597,354.876007 473.657928,351.281067 
	C471.830017,348.071930 472.233490,344.889008 475.018616,342.257416 
	C475.730927,341.584351 476.634216,341.113312 477.814514,340.396606 
z"/>
<path fill="#FFFDFE" opacity="1.000000" stroke="none" 
	d="
M258.186096,359.864502 
	C263.080292,356.507935 267.880676,353.561218 272.327667,350.831421 
	C274.227539,352.416779 275.560333,354.039734 277.276581,354.869049 
	C283.410980,357.833282 289.633240,360.629456 295.921051,363.252380 
	C297.448975,363.889771 299.628326,364.263275 301.040161,363.661041 
	C307.912598,360.729431 314.659454,357.493103 321.368134,354.196411 
	C322.720581,353.531830 323.715088,352.138916 325.105896,350.870941 
	C329.056976,353.090179 333.162720,355.266327 337.106262,357.704742 
	C338.063293,358.296539 339.012512,359.727753 339.063202,360.815033 
	C339.280151,365.467651 339.362946,370.150970 339.021881,374.788330 
	C338.934753,375.973022 337.321045,377.434143 336.057159,378.075195 
	C331.022552,380.628876 325.892426,383.009155 320.709045,385.248474 
	C318.043884,386.399841 317.010834,388.055511 317.113403,390.994720 
	C317.322357,396.982391 317.440308,402.998169 317.086609,408.972229 
	C316.833008,413.255768 318.026886,415.935913 322.326233,417.161804 
	C324.187286,417.692474 325.858093,418.890411 328.465637,420.218262 
	C318.713867,425.853241 309.651031,431.176575 300.463013,436.274323 
	C299.475342,436.822296 297.533478,436.463409 296.417603,435.839508 
	C286.992035,430.569702 277.655640,425.140381 268.253723,419.736694 
	C268.559937,419.336273 268.696503,418.956329 268.914551,418.901733 
	C276.285309,417.055878 278.327118,412.067932 277.138519,405.113281 
	C277.000275,404.304260 277.146606,403.450195 277.115448,402.618713 
	C276.917572,397.335663 278.494110,390.869965 275.999725,387.101685 
	C273.485016,383.302673 267.034973,381.894012 262.096039,379.991272 
	C258.904541,378.761749 257.739227,377.139618 257.975952,373.757172 
	C258.289185,369.282104 258.078064,364.770355 258.186096,359.864502 
z"/>
<path fill="#FFF9FA" opacity="1.000000" stroke="none" 
	d="
M320.195557,404.888489 
	C320.195679,400.113708 320.195679,395.816864 320.195679,390.310150 
	C327.196625,393.554138 333.549286,396.436340 339.814056,399.498413 
	C340.421234,399.795135 340.747040,401.201630 340.758026,402.098419 
	C340.836761,408.525421 340.800140,414.953857 340.800140,422.196899 
	C334.096771,419.143005 327.730164,416.782257 322.042145,413.309875 
	C320.416138,412.317200 320.756683,408.103241 320.195557,404.888489 
z"/>
<path fill="#FFF9FA" opacity="1.000000" stroke="none" 
	d="
M307.766296,334.775269 
	C311.835602,332.895752 315.558411,331.178497 320.312439,328.985535 
	C320.312439,336.788208 320.351044,343.509521 320.249817,350.228729 
	C320.240234,350.865265 319.488739,351.773132 318.853790,352.073761 
	C312.912170,354.887360 306.920837,357.595978 300.124237,360.710541 
	C300.124237,353.167542 299.564911,346.502838 300.459137,340.039276 
	C300.733582,338.055664 304.987946,336.622650 307.766296,334.775269 
z"/>
<path fill="#FFFCFD" opacity="1.000000" stroke="none" 
	d="
M230.717438,409.615967 
	C230.716293,403.216431 230.716293,397.277802 230.716293,390.472900 
	C237.379837,393.555664 243.271423,396.148743 249.001434,399.059845 
	C249.981064,399.557556 250.759079,401.399811 250.795822,402.645538 
	C250.977371,408.801544 250.878464,414.965881 250.878464,422.108276 
	C244.291672,419.113953 238.151276,416.432922 232.151352,413.467651 
	C231.318588,413.056061 231.179047,411.241791 230.717438,409.615967 
z"/>
<path fill="#FFFCFD" opacity="1.000000" stroke="none" 
	d="
M268.226929,393.128235 
	C270.069336,392.310333 271.554962,391.642395 273.965515,390.558655 
	C273.965515,397.981079 274.019928,404.815399 273.885986,411.646027 
	C273.871704,412.373047 272.898499,413.381042 272.127563,413.745667 
	C266.331238,416.487061 260.474060,419.099762 253.938217,422.069733 
	C253.938217,414.759369 253.818283,408.186920 254.057953,401.627655 
	C254.097260,400.551819 255.518417,399.153046 256.646179,398.559174 
	C260.301056,396.634644 264.116547,395.015167 268.226929,393.128235 
z"/>
<path fill="#FFFCFD" opacity="1.000000" stroke="none" 
	d="
M358.453430,415.394745 
	C353.625336,417.631470 349.134064,419.684174 343.850372,422.099030 
	C343.850372,414.827057 343.758057,408.268921 343.949097,401.719055 
	C343.978027,400.726837 345.117798,399.358551 346.096191,398.870026 
	C351.695038,396.074463 357.400452,393.492279 363.985168,390.408997 
	C363.985168,397.910583 364.281952,404.633026 363.749176,411.289124 
	C363.634705,412.719452 360.521912,413.909790 358.453430,415.394745 
z"/>
<path fill="#FFFCFD" opacity="1.000000" stroke="none" 
	d="
M276.980927,338.095642 
	C276.980927,334.992218 276.980927,332.367432 276.980927,328.887512 
	C283.586365,331.966003 289.587952,334.685669 295.490173,337.606140 
	C296.278503,337.996216 296.993591,339.393799 297.013031,340.339844 
	C297.145447,346.778442 297.082336,353.221069 297.082336,360.569275 
	C290.385101,357.466400 284.378937,354.791351 278.509491,351.844055 
	C277.664276,351.419647 277.120117,349.705658 277.052948,348.552551 
	C276.859741,345.236328 276.982391,341.901672 276.980927,338.095642 
z"/>
<path fill="#FFF9FA" opacity="1.000000" stroke="none" 
	d="
M247.463638,394.832733 
	C242.751511,392.620209 238.399475,390.577240 232.914551,388.002472 
	C238.196884,385.476013 242.971985,383.765808 247.106552,381.072327 
	C252.513962,377.549591 256.494965,380.815002 260.886902,382.845123 
	C264.274841,384.411194 267.666962,385.968201 271.996857,387.961853 
	C265.453003,390.942810 260.024872,393.730591 254.340652,395.822479 
	C252.516068,396.493958 250.015213,395.327789 247.463638,394.832733 
z"/>
<path fill="#FFF9FA" opacity="1.000000" stroke="none" 
	d="
M348.285767,381.646606 
	C352.675385,383.727631 356.738159,385.618378 361.791809,387.970245 
	C355.009338,391.073730 348.957672,393.884613 342.852142,396.573059 
	C342.228424,396.847656 341.202423,396.561646 340.496796,396.241272 
	C334.937408,393.717194 329.410522,391.121490 322.692230,387.998657 
	C329.599121,384.781097 335.394501,381.712280 341.495697,379.478729 
	C343.182678,378.861115 345.779541,380.728851 348.285767,381.646606 
z"/>
<path fill="#FFF9FA" opacity="1.000000" stroke="none" 
	d="
M286.304138,329.800415 
	C284.036926,328.696198 282.112152,327.744171 279.220062,326.313690 
	C285.862640,323.320587 291.753815,320.609833 297.709656,318.049683 
	C298.501678,317.709259 299.738922,317.873016 300.572021,318.245758 
	C306.280579,320.799805 311.936310,323.471924 318.290192,326.422272 
	C311.978516,329.395386 306.524231,332.202423 300.856445,334.477753 
	C299.319611,335.094727 297.029785,334.408783 295.276276,333.784882 
	C292.319519,332.732880 289.515106,331.252686 286.304138,329.800415 
z"/>
<path fill="#FCFCFC" opacity="1.000000" stroke="none" 
	d="
M441.156342,375.660583 
	C446.612396,381.130127 447.994110,387.611511 445.382416,394.114502 
	C443.055542,399.908356 438.471436,402.611786 432.565033,402.804260 
	C426.759521,402.993500 421.725372,401.053528 418.972687,395.378632 
	C416.071899,389.398346 417.040253,381.741791 421.201019,377.118195 
	C424.893768,373.014679 431.537323,371.538940 437.317169,373.622589 
	C438.555695,374.069122 439.690552,374.803223 441.156342,375.660583 
z"/>
<path fill="#FCFCFC" opacity="1.000000" stroke="none" 
	d="
M654.375732,384.658356 
	C657.388000,374.745697 665.081116,370.547577 674.070312,373.547485 
	C681.557312,376.046051 685.403137,384.895020 682.690613,393.382355 
	C680.705933,399.592377 674.251831,403.581879 667.435425,402.812195 
	C660.002747,401.972900 655.025330,397.012482 654.235779,389.533875 
	C654.080322,388.061310 654.274414,386.551849 654.375732,384.658356 
z"/>
<path fill="#FCFCFC" opacity="1.000000" stroke="none" 
	d="
M844.222412,383.035339 
	C836.034729,383.059662 828.272217,383.059662 820.286560,383.059662 
	C820.199646,382.245819 819.929443,381.577301 820.103882,381.058350 
	C821.730957,376.218719 826.788391,373.127777 833.128967,373.013123 
	C838.618652,372.913849 843.642151,376.057220 845.234070,380.756134 
	C845.442383,381.371002 844.862488,382.252869 844.222412,383.035339 
z"/>
</svg>