<?xml version="1.0" encoding="UTF-8"?>
<svg version="1.1" xmlns="http://www.w3.org/2000/svg" width="1080" height="1080">
<path d="M0 0 C356.4 0 712.8 0 1080 0 C1080 356.4 1080 712.8 1080 1080 C723.6 1080 367.2 1080 0 1080 C0 723.6 0 367.2 0 0 Z " fill="#FEFEFE" transform="translate(0,0)"/>
<path d="M0 0 C1.25725891 -0.00018127 1.25725891 -0.00018127 2.53991699 -0.00036621 C19.44168622 0.03396588 35.83091753 1.63666633 52.5 4.375 C53.42603027 4.51921387 54.35206055 4.66342773 55.30615234 4.81201172 C92.39531853 10.74541527 127.38519079 29.76403735 154.5 55.375 C155.23605469 56.05820313 155.97210937 56.74140625 156.73046875 57.4453125 C188.50155925 87.92306657 209.65042756 133.78477763 218.5 176.375 C218.5 177.365 218.5 178.355 218.5 179.375 C219.86849342 179.37166908 219.86849342 179.37166908 221.26463318 179.36827087 C229.84383277 179.34827072 238.42302458 179.33302728 247.00224209 179.32318783 C251.41337004 179.31795931 255.8244788 179.31086223 260.2355957 179.29956055 C264.48901115 179.28873056 268.74240809 179.28272293 272.99583626 179.28012276 C274.62221633 179.27826871 276.24859534 179.27464848 277.87496758 179.26926994 C280.14510193 179.26205802 282.41515885 179.26100912 284.68530273 179.26147461 C285.97991928 179.259254 287.27453583 179.25703339 288.60838318 179.25474548 C291.5 179.375 291.5 179.375 292.5 180.375 C292.59319449 181.9098297 292.617458 183.44892082 292.61352539 184.98657227 C292.61344986 185.96751358 292.61337433 186.9484549 292.61329651 187.9591217 C292.60813522 189.0257756 292.60297394 190.0924295 292.59765625 191.19140625 C292.5962413 192.2775975 292.59482635 193.36378876 292.59336853 194.4828949 C292.58775048 197.96779075 292.57519492 201.45262342 292.5625 204.9375 C292.55748733 207.29361887 292.55292402 209.64973874 292.54882812 212.00585938 C292.53777518 217.79559743 292.52049846 223.58528799 292.5 229.375 C298.77 229.375 305.04 229.375 311.5 229.375 C311.5 367.645 311.5 505.915 311.5 648.375 C344.83 648.375 378.16 648.375 412.5 648.375 C412.5 664.545 412.5 680.715 412.5 697.375 C419.1 697.375 425.7 697.375 432.5 697.375 C432.5 727.735 432.5 758.095 432.5 789.375 C311.72 789.375 190.94 789.375 66.5 789.375 C66.5 782.775 66.5 776.175 66.5 769.375 C50.33 769.375 34.16 769.375 17.5 769.375 C17.5 729.445 17.5 689.515 17.5 648.375 C62.05 648.375 106.6 648.375 152.5 648.375 C152.005 586.995 152.005 586.995 151.5 524.375 C148.2 527.345 144.9 530.315 141.5 533.375 C120.16656472 550.204441 96.31870156 560.45888867 70.5 568.375 C69.84064453 568.58108887 69.18128906 568.78717773 68.50195312 568.99951172 C47.45213102 575.43015374 25.24057052 576.75301044 3.375 576.75 C2.5314798 576.75181274 1.68795959 576.75362549 0.81887817 576.75549316 C-45.59645369 576.74418022 -94.47652383 565.77429699 -131.5 536.375 C-132.39847656 535.66730469 -133.29695313 534.95960938 -134.22265625 534.23046875 C-159.90382026 513.60607402 -178.59331721 488.12491676 -192.5 458.375 C-192.88897461 457.55257813 -193.27794922 456.73015625 -193.67871094 455.8828125 C-196.8223457 449.12533083 -199.50453872 442.27053523 -202 435.25 C-202.3909082 434.15107422 -202.78181641 433.05214844 -203.18457031 431.91992188 C-208.81874275 415.93067441 -212.80602824 400.14467269 -215.91357422 383.46826172 C-216.44584661 380.66064675 -217.01512519 377.86392847 -217.59765625 375.06640625 C-229.14788863 317.61223488 -227.55413891 252.76001292 -216.5 195.375 C-216.27803955 194.20888184 -216.0560791 193.04276367 -215.82739258 191.84130859 C-210.98314845 167.03021182 -204.2171848 143.30580435 -193.5 120.375 C-193.17563965 119.67262207 -192.8512793 118.97024414 -192.51708984 118.24658203 C-182.53288645 96.81492846 -169.78639825 77.52546761 -153.5 60.375 C-153.02336914 59.8711377 -152.54673828 59.36727539 -152.05566406 58.84814453 C-120.73107818 25.95238857 -78.78990314 9.01472456 -34.5 2.375 C-33.30036621 2.19404785 -32.10073242 2.0130957 -30.86474609 1.82666016 C-20.55514529 0.39630069 -10.40204668 -0.02329396 0 0 Z " fill="#000000" transform="translate(439.5,172.625)"/>
<path d="M0 0 C1.25725891 -0.00018127 1.25725891 -0.00018127 2.53991699 -0.00036621 C19.44168622 0.03396588 35.83091753 1.63666633 52.5 4.375 C53.42603027 4.51921387 54.35206055 4.66342773 55.30615234 4.81201172 C92.39531853 10.74541527 127.38519079 29.76403735 154.5 55.375 C155.23605469 56.05820313 155.97210937 56.74140625 156.73046875 57.4453125 C188.50155925 87.92306657 209.65042756 133.78477763 218.5 176.375 C218.5 177.365 218.5 178.355 218.5 179.375 C217.52240723 179.36863525 216.54481445 179.36227051 215.53759766 179.35571289 C211.86544063 179.34114107 208.19482125 179.37289055 204.52294922 179.41772461 C202.94227367 179.43076011 201.36144534 179.43169501 199.78076172 179.41967773 C189.05705337 179.34845766 182.94001091 180.2938345 174.5 187.375 C171.09935882 189.47809766 167.58516311 191.35976724 164.0625 193.25 C163.11020508 193.76393311 162.15791016 194.27786621 161.17675781 194.80737305 C148.90378896 201.37110689 136.42916134 207.34059183 123.5 212.5 C122.73977539 212.80784424 121.97955078 213.11568848 121.19628906 213.43286133 C115.86130774 215.49543591 115.86130774 215.49543591 112.5 214.375 C112.40203125 213.48941406 112.3040625 212.60382813 112.203125 211.69140625 C109.3065224 187.69455192 102.63920705 163.39460487 90.5 142.375 C89.97237061 141.45968506 89.97237061 141.45968506 89.43408203 140.52587891 C76.39403807 118.31970966 57.94940793 105.89453485 33.70703125 98.3828125 C23.69230853 95.78509834 13.62424426 95.01151486 3.3125 95.0625 C2.14066162 95.06668945 0.96882324 95.07087891 -0.23852539 95.07519531 C-23.46737804 95.37481962 -47.9043401 101.3426596 -65.5 117.375 C-66.69302734 118.43074219 -66.69302734 118.43074219 -67.91015625 119.5078125 C-88.81624197 139.08909217 -98.00266701 167.78947181 -103.97094727 195.00366211 C-104.29918417 196.47489655 -104.64310386 197.94283884 -105.01147461 199.40454102 C-106.75661759 206.51031353 -107.49330374 213.76057071 -108.30493164 221.01879883 C-108.55852739 223.2771231 -108.8226392 225.53403446 -109.08789062 227.79101562 C-111.28218398 246.82683504 -111.67375577 265.72256806 -111.625 284.875 C-111.62278442 286.02929504 -111.62056885 287.18359009 -111.61828613 288.37286377 C-111.60100335 296.04043634 -111.56207163 303.70766012 -111.5 311.375 C-111.4937561 312.15597046 -111.48751221 312.93694092 -111.4810791 313.74157715 C-111.31484143 331.8318359 -109.28267593 349.50742284 -106.5 367.375 C-106.3359668 368.4283252 -106.17193359 369.48165039 -106.00292969 370.56689453 C-101.50755379 398.68817164 -92.9679561 429.69117898 -73.5 451.375 C-72.30117188 452.71304688 -72.30117188 452.71304688 -71.078125 454.078125 C-55.55166534 470.50206787 -32.3396775 480.6145105 -9.6784668 481.4831543 C23.3059732 482.0985825 51.79652829 477.66218708 76.56640625 454.4375 C95.80169591 434.54160443 107.23502986 402.4485726 110.5 375.375 C109.33726562 375.64054687 108.17453125 375.90609375 106.9765625 376.1796875 C95.82256825 378.66226369 84.87777172 380.28273392 73.5 381.375 C73.5 373.125 73.5 364.875 73.5 356.375 C72.84 356.045 72.18 355.715 71.5 355.375 C73.02753906 355.13716797 73.02753906 355.13716797 74.5859375 354.89453125 C90.80880312 352.26741728 106.16618166 347.56984049 121.75 342.4375 C122.99289795 342.03072021 124.2357959 341.62394043 125.51635742 341.20483398 C133.1220198 338.66289782 140.44757424 335.78003534 147.76074219 332.50952148 C150.5 331.375 150.5 331.375 152.5 331.375 C152.67338033 360.58329584 152.83956022 389.79163022 153 419 C153.00594854 420.08144869 153.01189708 421.16289739 153.01802588 422.27711725 C153.33853801 480.62234614 153.60051578 538.96629374 153.5625 597.3125 C153.56207577 597.98415978 153.56165154 598.65581957 153.56121445 599.34783268 C153.55070641 615.69023808 153.53143629 632.03262134 153.5 648.375 C153.17 648.375 152.84 648.375 152.5 648.375 C152.005 586.995 152.005 586.995 151.5 524.375 C148.2 527.345 144.9 530.315 141.5 533.375 C120.16656472 550.204441 96.31870156 560.45888867 70.5 568.375 C69.84064453 568.58108887 69.18128906 568.78717773 68.50195312 568.99951172 C47.45213102 575.43015374 25.24057052 576.75301044 3.375 576.75 C2.5314798 576.75181274 1.68795959 576.75362549 0.81887817 576.75549316 C-45.59645369 576.74418022 -94.47652383 565.77429699 -131.5 536.375 C-132.39847656 535.66730469 -133.29695313 534.95960938 -134.22265625 534.23046875 C-159.90382026 513.60607402 -178.59331721 488.12491676 -192.5 458.375 C-192.88897461 457.55257813 -193.27794922 456.73015625 -193.67871094 455.8828125 C-196.8223457 449.12533083 -199.50453872 442.27053523 -202 435.25 C-202.3909082 434.15107422 -202.78181641 433.05214844 -203.18457031 431.91992188 C-208.81874275 415.93067441 -212.80602824 400.14467269 -215.91357422 383.46826172 C-216.44584661 380.66064675 -217.01512519 377.86392847 -217.59765625 375.06640625 C-229.14788863 317.61223488 -227.55413891 252.76001292 -216.5 195.375 C-216.27803955 194.20888184 -216.0560791 193.04276367 -215.82739258 191.84130859 C-210.98314845 167.03021182 -204.2171848 143.30580435 -193.5 120.375 C-193.17563965 119.67262207 -192.8512793 118.97024414 -192.51708984 118.24658203 C-182.53288645 96.81492846 -169.78639825 77.52546761 -153.5 60.375 C-153.02336914 59.8711377 -152.54673828 59.36727539 -152.05566406 58.84814453 C-120.73107818 25.95238857 -78.78990314 9.01472456 -34.5 2.375 C-33.30036621 2.19404785 -32.10073242 2.0130957 -30.86474609 1.82666016 C-20.55514529 0.39630069 -10.40204668 -0.02329396 0 0 Z " fill="#3D3D3D" transform="translate(439.5,172.625)"/>
<path d="M0 0 C0.70882324 0.19335938 1.41764648 0.38671875 2.14794922 0.5859375 C28.09717909 7.86993185 45.9579558 22.06931839 59.5625 45.4375 C72.00818493 67.68953098 78.70446353 93.7362746 81 119 C59.10576224 126.95899032 36.99435361 133.18729839 14.3125 138.4375 C13.54321167 138.61716309 12.77392334 138.79682617 11.98132324 138.98193359 C9.77698103 139.49432421 7.57064673 139.99690711 5.36328125 140.49609375 C4.08751221 140.78669678 2.81174316 141.0772998 1.49731445 141.37670898 C-2 142 -2 142 -8 142 C-8 182.92 -8 223.84 -8 266 C-4.7 265.34 -1.4 264.68 2 264 C3.95427527 263.71070004 5.91241139 263.44487434 7.875 263.21875 C8.88046875 263.09886719 9.8859375 262.97898437 10.921875 262.85546875 C12.97395833 262.61848958 15.02604167 262.38151042 17.078125 262.14453125 C22.70824893 261.47324724 28.21343448 260.63452876 33.74609375 259.38476562 C36 259 36 259 41 259 C41 267.25 41 275.5 41 284 C43.64 283.34 46.28 282.68 49 282 C51.2653756 281.63139651 53.53659591 281.29674186 55.8125 281 C61.14524944 280.27827451 66.41644381 279.41012508 71.6953125 278.3671875 C74 278 74 278 78 278 C78.43442965 284.57190387 76.85952917 290.26951093 75.0625 296.5625 C74.75038574 297.65933105 74.43827148 298.75616211 74.11669922 299.88623047 C65.7685176 328.3208167 52.539535 357.16673905 25.5246582 372.18115234 C-0.90196714 386.24458949 -35.24602105 390.15999499 -64.07958984 381.36572266 C-86.27360685 374.14154711 -105.52996534 360.61875279 -117 340 C-117.96679688 338.33904297 -117.96679688 338.33904297 -118.953125 336.64453125 C-124.51455371 326.86941469 -128.44875414 316.65136217 -132 306 C-132.58587891 304.24429688 -132.58587891 304.24429688 -133.18359375 302.453125 C-141.8409067 274.29159337 -144.72240584 243.3270966 -145 214 C-145.00988953 213.08835083 -145.01977905 212.17670166 -145.02996826 211.23742676 C-145.58138337 159.24055741 -145.58138337 159.24055741 -143.31640625 138.89160156 C-142.96590464 135.68840633 -142.669768 132.4822237 -142.375 129.2734375 C-138.71117476 91.0741702 -129.14416203 51.48891868 -102 23 C-101.47277344 22.38640625 -100.94554687 21.7728125 -100.40234375 21.140625 C-87.99881561 7.30958083 -67.74648529 0.80313802 -50 -2 C-48.96746094 -2.18433594 -47.93492187 -2.36867188 -46.87109375 -2.55859375 C-31.4770065 -4.31392358 -14.97850906 -4.12338518 0 0 Z " fill="#FEFEFE" transform="translate(472,270)"/>
<path d="M0 0 C12.54 0 25.08 0 38 0 C38 154.44 38 308.88 38 468 C77.93 468 117.86 468 159 468 C159 488.79 159 509.58 159 531 C116.21260708 531.02202549 73.42521948 531.0404973 30.63782251 531.05106533 C25.59196305 531.05231611 20.54610359 531.05361042 15.50024414 531.05493164 C13.99336776 531.05532511 13.99336776 531.05532511 12.45604943 531.05572652 C-3.83245701 531.06008361 -20.12095994 531.06797137 -36.40946429 531.0771528 C-53.10992217 531.08648826 -69.81037819 531.09205538 -86.51083857 531.09408849 C-96.82461393 531.09546395 -107.13837936 531.09981572 -117.45215166 531.10791647 C-124.51461838 531.11318261 -131.57707993 531.1148046 -138.63954847 531.11350138 C-142.72059117 531.11285779 -146.80161646 531.11387783 -150.8826561 531.11920547 C-154.61255348 531.12403945 -158.34242161 531.12433866 -162.07232029 531.12089889 C-164.07379933 531.12027025 -166.07527798 531.124612 -168.07675213 531.12908131 C-169.24916409 531.12709026 -170.42157605 531.12509921 -171.62951565 531.12304783 C-173.15997844 531.12361741 -173.15997844 531.12361741 -174.72135967 531.1241985 C-177 531 -177 531 -178 530 C-178 509.54 -178 489.08 -178 468 C-133.12 468 -88.24 468 -42 468 C-42.06960938 454.25601562 -42.13921875 440.51203125 -42.2109375 426.3515625 C-42.24159282 417.64712866 -42.27072473 408.94273393 -42.29296875 400.23828125 C-42.32856315 386.42059968 -42.37039518 372.60313773 -42.45263672 358.78564453 C-42.51250578 348.72216543 -42.55116514 338.65886459 -42.56453097 328.59521234 C-42.57234196 323.26822296 -42.59065403 317.94174346 -42.63438034 312.61491776 C-42.67523976 307.59647408 -42.68764207 302.57874818 -42.67864609 297.56015396 C-42.68029077 295.72277419 -42.69214615 293.88536931 -42.71523285 292.04813385 C-42.83800332 281.77011089 -42.68253227 274.37414153 -36 266 C-34.01598421 262.45119248 -32.13258526 258.85350807 -30.25 255.25 C-29.76917969 254.34378906 -29.28835938 253.43757812 -28.79296875 252.50390625 C-28.33019531 251.62089844 -27.86742187 250.73789062 -27.390625 249.828125 C-26.97844727 249.0434082 -26.56626953 248.25869141 -26.14160156 247.45019531 C-23.23010271 241.20130685 -22.69721353 235.9311312 -22.68115234 229.13916016 C-22.67110672 228.16292694 -22.6610611 227.18669373 -22.65071106 226.18087769 C-22.61991895 222.96694506 -22.60285481 219.75309559 -22.5859375 216.5390625 C-22.56722268 214.30560594 -22.54764903 212.07215643 -22.5272522 209.8387146 C-22.47595832 203.96978919 -22.43631778 198.10084088 -22.39910889 192.23181152 C-22.35905214 186.23911889 -22.30796738 180.24652137 -22.2578125 174.25390625 C-22.16108564 162.502671 -22.07667038 150.75138202 -22 139 C-23.64492618 138.91698503 -25.29116332 138.85992534 -26.9375 138.8125 C-27.85402344 138.77769531 -28.77054688 138.74289062 -29.71484375 138.70703125 C-34.05339847 138.96661779 -34.05339847 138.96661779 -42 142 C-42 125.83 -42 109.66 -42 93 C-43.98 93 -45.96 93 -48 93 C-50.23828125 92.50927734 -50.23828125 92.50927734 -52.3125 91.8359375 C-53.07820312 91.60132813 -53.84390625 91.36671875 -54.6328125 91.125 C-56.21320289 90.62428225 -57.79135307 90.1164391 -59.3671875 89.6015625 C-64.36651003 88.08661628 -67.10030661 87.72337479 -72 90 C-73.61416191 90.70149135 -75.22879782 91.40189241 -76.84375 92.1015625 C-77.74859131 92.50528076 -78.65343262 92.90899902 -79.58569336 93.32495117 C-107.06045689 105.58122291 -140.45089965 120 -171 120 C-171 98.22 -171 76.44 -171 54 C-162.75 52.02 -154.5 50.04 -146 48 C-141.32004764 46.6029993 -136.6835741 45.21172564 -132.05419922 43.67822266 C-127.94090389 42.32016057 -123.81385855 41.00519989 -119.6875 39.6875 C-118.86781738 39.42066406 -118.04813477 39.15382813 -117.20361328 38.87890625 C-116.43903809 38.63398438 -115.67446289 38.3890625 -114.88671875 38.13671875 C-114.20826904 37.91717529 -113.52981934 37.69763184 -112.83081055 37.47143555 C-111 37 -111 37 -108 37 C-107.2403658 40.50878655 -106.76455389 43.94299022 -106.46484375 47.51953125 C-106.37783203 48.54111328 -106.29082031 49.56269531 -106.20117188 50.61523438 C-106.11416016 51.67033203 -106.02714844 52.72542969 -105.9375 53.8125 C-105.80118164 55.42415039 -105.80118164 55.42415039 -105.66210938 57.06835938 C-105.4388655 59.71203682 -105.21824971 62.35590636 -105 65 C-70.28941641 55.16114317 -33.06523653 42.48811237 -3.62890625 20.9609375 C-2 20 -2 20 1 20 C0.67 13.4 0.34 6.8 0 0 Z " fill="#7F7F7F" transform="translate(664,382)"/>
<path d="M0 0 C6.6 0 13.2 0 20 0 C20 30.36 20 60.72 20 92 C-100.78 92 -221.56 92 -346 92 C-346 85.4 -346 78.8 -346 72 C-231.82 72 -117.64 72 0 72 C0 48.24 0 24.48 0 0 Z " fill="#818181" transform="translate(852,870)"/>
<path d="M0 0 C0.33 0 0.66 0 1 0 C1 16.17 1 32.34 1 49 C7.27 49 13.54 49 20 49 C20 187.27 20 325.54 20 468 C13.4 468 6.8 468 0 468 C0 313.56 0 159.12 0 0 Z " fill="#7D7D7D" transform="translate(731,353)"/>
<path d="M0 0 C0.33 0 0.66 0 1 0 C1 81.51 1 163.02 1 247 C-43.88 247 -88.76 247 -135 247 C-135 260.86 -135 274.72 -135 289 C-141.6 289 -148.2 289 -155 289 C-155 268.54 -155 248.08 -155 227 C-110.12 227 -65.24 227 -19 227 C-19.06960938 213.25601563 -19.13921875 199.51203125 -19.2109375 185.3515625 C-19.24159282 176.64712866 -19.27072473 167.94273393 -19.29296875 159.23828125 C-19.32856315 145.42059968 -19.37039518 131.60313773 -19.45263672 117.78564453 C-19.51250578 107.72216543 -19.55116514 97.65886459 -19.56453097 87.59521234 C-19.57234196 82.26822296 -19.59065403 76.94174346 -19.63438034 71.61491776 C-19.67523976 66.59647408 -19.68764207 61.57874818 -19.67864609 56.56015396 C-19.68029077 54.72277419 -19.69214615 52.88536931 -19.71523285 51.04813385 C-19.83806504 40.76494413 -19.6771497 33.3816634 -13 25 C-12.00515884 23.20149817 -11.02576149 21.39412797 -10.078125 19.5703125 C-9.37623047 18.22453125 -9.37623047 18.22453125 -8.66015625 16.8515625 C-8.19480469 15.95179688 -7.72945312 15.05203125 -7.25 14.125 C-6.76917969 13.20203125 -6.28835938 12.2790625 -5.79296875 11.328125 C-3.83507748 7.56504708 -1.88884217 3.79828595 0 0 Z " fill="#FBFBFB" transform="translate(641,623)"/>
<path d="M0 0 C1.34888732 0.00015905 2.69778075 0.00584927 4.04663086 0.01586914 C5.10991859 0.01799156 5.10991859 0.01799156 6.19468689 0.02015686 C8.46699173 0.02577096 10.73919936 0.03832576 13.01147461 0.05102539 C14.54858257 0.05603858 16.08569206 0.0606018 17.62280273 0.06469727 C21.39823103 0.07574497 25.17358632 0.09301898 28.94897461 0.11352539 C29.8900835 4.42829799 30.06623051 8.52449339 30.01147461 12.92602539 C30.00696289 13.61889648 30.00245117 14.31176758 29.99780273 15.02563477 C29.98610617 16.72163607 29.96817385 18.41759242 29.94897461 20.11352539 C29.00151367 20.62399414 29.00151367 20.62399414 28.03491211 21.14477539 C22.7310209 24.01835334 17.4775786 26.95827439 12.26147461 29.98852539 C4.6529013 34.36737969 -3.1313343 38.32967298 -11.05102539 42.11352539 C-12.03087402 42.58459717 -12.03087402 42.58459717 -13.03051758 43.06518555 C-33.39537885 52.7558083 -55.15131103 60.74245723 -77.05102539 66.11352539 C-77.10637451 65.41791504 -77.16172363 64.72230469 -77.21875 64.00561523 C-77.47269394 60.83303361 -77.7305736 57.66078356 -77.98852539 54.48852539 C-78.07553711 53.39411133 -78.16254883 52.29969727 -78.25219727 51.17211914 C-78.38271484 49.5769043 -78.38271484 49.5769043 -78.51586914 47.94946289 C-78.59442139 46.97541504 -78.67297363 46.00136719 -78.75390625 44.99780273 C-79.06190477 42.00791405 -79.52714852 39.07256617 -80.05102539 36.11352539 C-78.57569336 35.62045898 -78.57569336 35.62045898 -77.07055664 35.11743164 C-65.12483224 31.05272943 -53.57523788 26.24315044 -42.05102539 21.11352539 C-41.30852539 20.78626465 -40.56602539 20.45900391 -39.80102539 20.12182617 C-28.32309381 15.0342963 -11.7148617 0.43589747 0 0 Z " fill="#3D3D3D" transform="translate(635.051025390625,381.886474609375)"/>
<path d="M0 0 C0.8410478 3.6464806 1.11764968 6.99950907 1.09765625 10.73828125 C1.09282227 12.33833008 1.09282227 12.33833008 1.08789062 13.97070312 C1.07532227 15.62489258 1.07532227 15.62489258 1.0625 17.3125 C1.05798828 18.43462891 1.05347656 19.55675781 1.04882812 20.71289062 C1.03707313 23.4753151 1.02064077 26.23762998 1 29 C-4.87293377 31.00943413 -10.76540197 32.85328006 -16.75 34.5 C-17.52424316 34.71358154 -18.29848633 34.92716309 -19.09619141 35.1472168 C-36.86710184 40 -36.86710184 40 -43 40 C-43 53.2 -43 66.4 -43 80 C-59 83 -59 83 -63 83 C-63 61.22 -63 39.44 -63 17 C-50.625 14.03 -50.625 14.03 -38 11 C-33.32004764 9.6029993 -28.6835741 8.21172564 -24.05419922 6.67822266 C-19.94090389 5.32016057 -15.81385855 4.00519989 -11.6875 2.6875 C-10.86781738 2.42066406 -10.04813477 2.15382813 -9.20361328 1.87890625 C-8.43903809 1.63398438 -7.67446289 1.3890625 -6.88671875 1.13671875 C-6.20826904 0.91717529 -5.52981934 0.69763184 -4.83081055 0.47143555 C-3 0 -3 0 0 0 Z " fill="#FCFCFC" transform="translate(556,419)"/>
<path d="M0 0 C0.93972656 0.12890625 1.87945313 0.2578125 2.84765625 0.390625 C3.53730469 0.50921875 4.22695313 0.6278125 4.9375 0.75 C5.05368686 13.58103435 5.14236397 26.41194218 5.19656086 39.24339676 C5.22258136 45.20249349 5.25784155 51.16122855 5.31469727 57.12011719 C5.36928599 62.87787143 5.39897722 68.63527922 5.41188622 74.3932724 C5.42107797 76.58278603 5.43902678 78.77228211 5.46615028 80.96164703 C5.72321726 102.58451182 5.72321726 102.58451182 -0.0625 112.75 C-0.98552978 114.62251373 -1.90404516 116.49726496 -2.81640625 118.375 C-3.74736266 120.16939576 -4.68353891 121.96109335 -5.625 123.75 C-6.09357422 124.66394531 -6.56214844 125.57789063 -7.04492188 126.51953125 C-7.73618164 127.84017578 -7.73618164 127.84017578 -8.44140625 129.1875 C-8.8494751 129.96996094 -9.25754395 130.75242187 -9.67797852 131.55859375 C-11.0625 133.75 -11.0625 133.75 -15.0625 137.75 C-15.0625 93.53 -15.0625 49.31 -15.0625 3.75 C-4.9375 -0.75 -4.9375 -0.75 0 0 Z " fill="#3E3E3E" transform="translate(637.0625,520.25)"/>
<path d="M0 0 C0 10.89 0 21.78 0 33 C-3.898125 34.093125 -7.79625 35.18625 -11.8125 36.3125 C-13.01753174 36.65063721 -14.22256348 36.98877441 -15.46411133 37.3371582 C-17.56479444 37.92577444 -19.66617562 38.51190234 -21.76806641 39.09619141 C-23.88252228 39.68749792 -25.99433376 40.28836461 -28.10302734 40.89990234 C-29.06289551 41.17398926 -30.02276367 41.44807617 -31.01171875 41.73046875 C-31.85565186 41.97563232 -32.69958496 42.2207959 -33.5690918 42.47338867 C-36.11640771 43.02521758 -38.401703 43.09421472 -41 43 C-41.33 43.99 -41.66 44.98 -42 46 C-42 45.34 -42 44.68 -42 44 C-43.74410156 44.39832031 -43.74410156 44.39832031 -45.5234375 44.8046875 C-56.67743175 47.28726369 -67.62222828 48.90773392 -79 50 C-79 41.75 -79 33.5 -79 25 C-79.66 24.67 -80.32 24.34 -81 24 C-79.98164062 23.84144531 -78.96328125 23.68289063 -77.9140625 23.51953125 C-61.69119688 20.89241728 -46.33381834 16.19484049 -30.75 11.0625 C-28.88565308 10.45233032 -28.88565308 10.45233032 -26.98364258 9.82983398 C-19.3779802 7.28789782 -12.05242576 4.40503534 -4.73925781 1.13452148 C-2 0 -2 0 0 0 Z " fill="#7F7F7F" transform="translate(592,504)"/>
<path d="M0 0 C23.1 0 46.2 0 70 0 C70 6.27 70 12.54 70 19 C46.9 19 23.8 19 0 19 C0 12.73 0 6.46 0 0 Z " fill="#FFFFFF" transform="translate(752,851)"/>
<path d="M0 0 C12.54 0 25.08 0 38 0 C38 6.6 38 13.2 38 20 C26.12 20 14.24 20 2 20 C0 5 0 5 0 0 Z " fill="#FCFCFC" transform="translate(664,382)"/>
</svg>
